<?xml version="1.0" encoding="UTF-8" standalone="no"?>
<!-- Creator: CorelDRAW 2017 -->

<svg
   xmlns:dc="http://purl.org/dc/elements/1.1/"
   xmlns:cc="http://creativecommons.org/ns#"
   xmlns:rdf="http://www.w3.org/1999/02/22-rdf-syntax-ns#"
   xmlns:svg="http://www.w3.org/2000/svg"
   xmlns="http://www.w3.org/2000/svg"
   xmlns:xlink="http://www.w3.org/1999/xlink"
   xmlns:sodipodi="http://sodipodi.sourceforge.net/DTD/sodipodi-0.dtd"
   xmlns:inkscape="http://www.inkscape.org/namespaces/inkscape"
   xml:space="preserve"
   width="1935.4822"
   height="623.52179"
   version="1.0"
   style="clip-rule:evenodd;fill-rule:evenodd;image-rendering:optimizeQuality;shape-rendering:geometricPrecision;text-rendering:geometricPrecision"
   viewBox="0 0 1787.6337 576.45097"
   id="svg85"
   sodipodi:docname="readme_header.svg"
   inkscape:version="0.92.3 (2405546, 2018-03-11)"><metadata
   id="metadata89"><rdf:RDF><cc:Work
       rdf:about=""><dc:format>image/svg+xml</dc:format><dc:type
         rdf:resource="http://purl.org/dc/dcmitype/StillImage" /><dc:title></dc:title></cc:Work></rdf:RDF></metadata><sodipodi:namedview
   pagecolor="#ffffff"
   bordercolor="#666666"
   borderopacity="1"
   objecttolerance="10"
   gridtolerance="10"
   guidetolerance="10"
   inkscape:pageopacity="0"
   inkscape:pageshadow="2"
   inkscape:window-width="3586"
   inkscape:window-height="2099"
   id="namedview87"
   showgrid="false"
   inkscape:zoom="0.87498648"
   inkscape:cx="1026.3906"
   inkscape:cy="160.28023"
   inkscape:window-x="3840"
   inkscape:window-y="0"
   inkscape:window-maximized="1"
   inkscape:current-layer="svg85" />
 <defs
   id="defs19">
  <style
   type="text/css"
   id="style2">
   <![CDATA[
    .fil1 {fill:#3DC4B4}
    .fil7 {fill:#EA7050}
    .fil6 {fill:#EBC368}
    .fil2 {fill:white}
    .fil8 {fill:#E9C46A;fill-rule:nonzero}
    .fil0 {fill:white;fill-rule:nonzero}
    .fil3 {fill:url(#id0)}
    .fil4 {fill:url(#id1)}
    .fil5 {fill:url(#id2)}
   ]]>
  </style>
  <linearGradient
   id="id0"
   gradientUnits="userSpaceOnUse"
   x1="585.67102"
   y1="50.701"
   x2="950.97699"
   y2="260.728">
   <stop
   offset="0"
   style="stop-opacity:1; stop-color:#E76F51"
   id="stop4" />
   <stop
   offset="1"
   style="stop-opacity:1; stop-color:black"
   id="stop6" />
  </linearGradient>
  <linearGradient
   id="id1"
   gradientUnits="userSpaceOnUse"
   x1="351.095"
   y1="147.047"
   x2="202.399"
   y2="373.73499">
   <stop
   offset="0"
   style="stop-opacity:1; stop-color:#E9C46A"
   id="stop9" />
   <stop
   offset="1"
   style="stop-opacity:1; stop-color:black"
   id="stop11" />
  </linearGradient>
  <linearGradient
   id="id2"
   gradientUnits="userSpaceOnUse"
   x1="473.41299"
   y1="112.698"
   x2="624.10797"
   y2="471.36899">
   <stop
   offset="0"
   style="stop-opacity:1; stop-color:#F4A261"
   id="stop14" />
   <stop
   offset="1"
   style="stop-opacity:1; stop-color:black"
   id="stop16" />
  </linearGradient>
 <style
   id="style896"
   type="text/css">
   <![CDATA[
    .fil3 {fill:url(#id0)}
    .fil0 {fill:url(#id1)}
    .fil1 {fill:url(#id2)}
    .fil2 {fill:url(#id3)}
   ]]>
  </style><linearGradient
   y2="37.569"
   x2="35.743999"
   y1="23.424999"
   x1="35.743999"
   gradientUnits="userSpaceOnUse"
   id="id0-3">
   <stop
   id="stop898"
   style="stop-opacity:1; stop-color:#3DC4B4"
   offset="0" />
   <stop
   id="stop900"
   style="stop-opacity:1; stop-color:#218A7E"
   offset="1" />
  </linearGradient><linearGradient
   y2="14.754"
   x2="28.48"
   y1="7.9650002"
   x1="28.48"
   xlink:href="#id0-3"
   gradientUnits="userSpaceOnUse"
   id="id1-6">
  </linearGradient><linearGradient
   y2="9.0609999"
   x2="45.848999"
   y1="2.5"
   x1="45.848999"
   xlink:href="#id0-3"
   gradientUnits="userSpaceOnUse"
   id="id2-7">
  </linearGradient><radialGradient
   fy="53.179001"
   fx="66.953003"
   r="7.8829999"
   cy="53.179001"
   cx="66.953003"
   gradientTransform="matrix(-1.21693,-3.38406,3.38406,-1.21693,-32,344)"
   gradientUnits="userSpaceOnUse"
   id="id3">
   <stop
   id="stop905"
   style="stop-opacity:1; stop-color:#EA7050"
   offset="0" />
   <stop
   id="stop907"
   style="stop-opacity:1; stop-color:#E9C46A"
   offset="1" />
  </radialGradient><linearGradient
   inkscape:collect="always"
   xlink:href="#id0-3"
   id="linearGradient945"
   gradientUnits="userSpaceOnUse"
   x1="35.743999"
   y1="23.424999"
   x2="35.743999"
   y2="37.569" /><style
   id="style2-5"
   type="text/css">
   <![CDATA[
    .fil0 {fill:#264653}
    .fil3 {fill:#29525E}
    .fil1 {fill:#2E616B}
    .fil2 {fill:#318483}
   ]]>
  </style><clipPath
   clipPathUnits="userSpaceOnUse"
   id="clipPath1340"><rect
     style="fill:none;fill-opacity:1;stroke-width:1.56354392"
     id="rect1342"
     width="2075.79"
     height="734.25549"
     x="-85.058617"
     y="-17.026205" /></clipPath></defs>
 <g
   id="g1338"
   clip-path="url(#clipPath1340)"><g
     transform="matrix(0.92450836,0,0,0.92450836,-846.67373,-19.826327)"
     id="g969"
     style="clip-rule:evenodd;fill-rule:evenodd;image-rendering:optimizeQuality;shape-rendering:geometricPrecision;text-rendering:geometricPrecision"><g
       id="Layer_x0020_1-6">
  <metadata
   id="CorelCorpID_0Corel-Layer-2" />
  <g
   id="_2775180077392">
   <rect
   class="fil0"
   width="3999.999"
   height="623.638"
   id="rect7"
   x="0"
   y="0"
   style="fill:#264653" />
   <path
   class="fil0"
   d="M 3999.999,366.004 C 3385.746,438.54 3056.701,426.218 2960.021,374.573 2787.164,291.658 2695.173,136.299 2453.73,133.877 2079.195,130.12 1937.503,479.634 1627.256,497.797 1508.03,512.331 1298.28,452.83 1040.021,488.32 1017.716,491.385 503.02503,470.17299 0,466.691 V 0.001 h 3999.999 v 366.004 z"
   id="path9"
   inkscape:connector-curvature="0"
   style="fill:#264653"
   sodipodi:nodetypes="ccsccccccc" />
   <path
   class="fil1"
   d="M 4000.1687,443.07501 3999.999,610.292 C 3635.983,620.017 3312.607,554.124 2960.021,451.121 2593.234,298.964 2258.884,620.314 1666.571,617.058 1109.851,613.998 557.012,606.954 0,597.963 V 466.691 c 501.44375,3.48199 1017.551,8.427 1040.021,9.84 267.535,1.355 440.627,0.894 587.235,1.465 298.539,-2.14 451.939,-359.665 826.474,-355.909 241.443,2.422 325.423,177.134 506.291,240.697 123.052,43.244 483.5892,88.59488 1040.1477,80.29101 z"
   id="path11"
   inkscape:connector-curvature="0"
   style="fill:#2e616b"
   sodipodi:nodetypes="cccsccccccc" />
   <path
   class="fil2"
   d="m 2964.2319,419.44335 c 350.028,111.383 674.4166,167.41453 1038.993,167.76009 l 0.09,206.83553 c -475.5349,3.48981 -918.8291,-37.55562 -1039.0831,-85.59862 -386.123,-154.262 -707.3865,47.57092 -1292.9555,85.41579 -58.7617,-0.051 -117.4005,-0.078 -175.9473,-0.0865 -498.70229,-0.0728 -990.7324,1.19627 -1495.20320769,0.4524 L -0.13282683,579.4446 981.86156,581.644 c 231.39104,-0.25 460.14634,-0.58465 688.88734,0.67235 592.314,3.254 818.328,-314.073 1293.483,-162.873 z"
   id="path13"
   inkscape:connector-curvature="0"
   style="fill:#318483"
   sodipodi:nodetypes="sccccsccccs" />
  </g>
  <path
   class="fil3"
   d="m 0,466.691 v -57.06974 c 505.02385,1.59802 913.783,6.49574 1040.266,1.72174 344.125,-1.068 421.678,-379.277 879,-381.339 151.078,-0.68 268.002,49.954 377.631,114.496 -3.674,1.036 -7.315,2.12 -10.942,3.224 v 0 C 2028.015,226.242 1886.438,472.622 1627.256,487.796 1508.03,502.33 1307.7737,481.59581 1040.021,478.32 1017.716,481.385 503.07402,468.34253 0,466.691 Z"
   id="path16"
   inkscape:connector-curvature="0"
   style="fill:#29525e"
   sodipodi:nodetypes="cccccccccc" />
 </g></g><g
     transform="translate(45.668895,121.5934)"
     id="Layer_x0020_1">
  <metadata
   id="CorelCorpID_0Corel-Layer" />
  <path
   style="fill:#ffffff;fill-rule:nonzero"
   inkscape:connector-curvature="0"
   id="path22"
   d="m 801.765,169.793 c -11.671,-15.86 -32.019,-21.845 -51.171,-21.845 -29.026,0 -57.753,14.364 -57.753,46.383 0,54.76 77.503,31.42 77.503,61.045 0,11.371 -13.465,16.458 -23.94,16.458 -15.261,0 -24.836,-7.481 -34.113,-17.656 l -23.939,22.444 c 14.663,16.458 33.814,22.144 55.959,22.144 29.325,0 61.942,-11.97 61.942,-46.084 0,-55.958 -77.504,-35.011 -77.504,-60.745 0,-10.773 11.372,-15.262 20.947,-15.262 12.27,0 21.247,5.087 28.13,14.663 z m 50.71,-71.557 c 11.657,0 21.106,9.448 21.106,21.105 0,11.656 -9.449,21.105 -21.106,21.105 -11.656,0 -21.105,-9.449 -21.105,-21.105 0,-11.657 9.449,-21.105 21.105,-21.105 z m -17.794,196.939 h 35.908 V 151.539 h -35.908 z m 213.393,-59.25 v -9.875 c 0,-49.973 -27.232,-78.102 -67.33,-78.102 -43.39,0 -78.102,30.224 -78.102,75.409 0,45.185 34.712,75.409 78.102,75.409 22.742,0 43.989,-8.079 60.746,-28.728 l -25.735,-19.451 c -8.977,11.073 -20.647,19.451 -38.602,19.451 -20.049,0 -36.208,-12.866 -38.602,-34.113 z M 938.551,208.993 c 2.693,-20.647 15.86,-34.113 37.106,-34.113 22.443,0 36.208,13.166 36.507,34.113 z m 243.583,-39.2 c -11.67,-15.86 -32.019,-21.845 -51.171,-21.845 -29.026,0 -57.753,14.364 -57.753,46.383 0,54.76 77.503,31.42 77.503,61.045 0,11.371 -13.465,16.458 -23.939,16.458 -15.262,0 -24.837,-7.481 -34.114,-17.656 l -23.939,22.444 c 14.663,16.458 33.815,22.144 55.959,22.144 29.325,0 61.942,-11.97 61.942,-46.084 0,-55.958 -77.503,-35.011 -77.503,-60.745 0,-10.773 11.371,-15.262 20.947,-15.262 12.269,0 21.245,5.087 28.129,14.663 z m 34.881,78.102 c 0,33.814 8.977,50.871 46.981,50.871 8.378,0 20.947,-1.197 28.428,-4.789 v -30.222 c -4.489,3.291 -13.166,4.488 -19.451,4.488 -15.86,0 -20.049,-8.977 -20.049,-23.34 v -62.841 h 39.5 v -30.523 h -39.5 v -45.717 h -35.909 c 0,68.076 0,58.851 0,142.073 z m 193.31,47.28 h 32.319 v -82.591 c 0,-20.348 0,-64.636 -61.345,-64.636 -22.742,0 -45.185,6.882 -61.045,23.042 l 18.852,18.852 c 9.576,-8.978 23.341,-14.962 38.303,-14.962 19.151,0 32.916,9.291 32.916,26.931 v 3.891 h -8.977 c -35.895,0 -90.371,3.291 -90.371,49.973 0,28.428 25.735,43.091 52.367,43.091 19.152,0 35.91,-7.182 46.084,-23.341 h 0.897 z m -2.094,-56.258 c 0,20.021 -11.671,32.917 -36.209,32.917 -11.67,0 -25.136,-5.685 -25.136,-18.852 0,-20.648 34.114,-22.144 53.864,-22.144 h 7.481 z"
   class="fil0" />
  <g
   id="_2775025768672">
   <polygon
   style="fill:#3dc4b4"
   id="polygon24"
   points="634.124,389.855 0,389.783 56.652,253.954 579.191,253.954 "
   class="fil1" />
   <g
   id="g34">
    <polygon
   style="fill:#ffffff"
   id="polygon26"
   points="509.904,174.333 575.874,327.454 557.266,327.454 494.165,181.053 "
   class="fil2" />
    <path
   style="fill:url(#id0)"
   inkscape:connector-curvature="0"
   id="path28"
   d="M 645.632,59.248 C 583.191,-4.182 508.869,-8.247 450.027,8.275 c 36.31,10.861 88.706,58.952 119.759,116.413 30.687,-22.103 53.562,-42.584 75.846,-65.44 z"
   class="fil3" />
    <path
   style="fill:url(#id1)"
   inkscape:connector-curvature="0"
   id="path30"
   d="m 317.272,199.285 c -2.63,-88.966 45.848,-145.46 98.48,-176.532 -17.274,33.74 -18.042,105.695 1.984,167.872 -39.269,8.137 -70.024,10.941 -100.464,8.66 z"
   class="fil4" />
    <path
   style="fill:url(#id2)"
   inkscape:connector-curvature="0"
   id="path32"
   d="m 432.658,15.437 c 41.324,14.9 88.164,59.219 118.393,121.441 -35.799,23.451 -71.767,38.994 -111.152,48.365 C 414.413,118.034 414.168,57.321 432.658,15.437 Z"
   class="fil5" />
   </g>
   <g
   id="g52">
    <path
   style="fill:#ffffff;fill-rule:nonzero"
   inkscape:connector-curvature="0"
   id="path36"
   d="m 357.149,371.567 33.421,-29.258 -6.118,-6.979 -33.555,29.376 0.007,0.008 c -0.975,0.922 -1.542,2.259 -1.436,3.702 0.187,2.553 2.406,4.469 4.959,4.282 1.045,-0.077 1.983,-0.495 2.715,-1.138 z"
   class="fil0" />
    <path
   style="fill:#ffffff;fill-rule:nonzero"
   inkscape:connector-curvature="0"
   id="path38"
   d="m 524.326,448.182 -19.868,-35.232 -8.074,4.559 19.686,34.91 0.012,-0.007 c 0.838,1.563 2.541,2.571 4.425,2.433 2.551,-0.186 4.467,-2.405 4.28,-4.958 -0.045,-0.612 -0.207,-1.186 -0.461,-1.705 z"
   class="fil0" />
    <path
   style="fill:#ffffff;fill-rule:nonzero"
   inkscape:connector-curvature="0"
   id="path40"
   d="m 619.386,406.465 -5.471,-9.7 -8.074,4.559 5.373,9.526 0.009,-0.005 0.101,0.202 0.131,0.231 c 0.873,1.443 2.506,2.355 4.304,2.223 2.551,-0.186 4.468,-2.405 4.281,-4.958 -0.056,-0.76 -0.293,-1.464 -0.664,-2.072 z"
   class="fil0" />
    <path
   style="fill:#ebc368"
   inkscape:connector-curvature="0"
   id="path42"
   d="m 634.871,394.398 c -84.237,-8.072 -169.214,-76.78 -198.328,-133.904 -29.687,2.094 -60.403,4.028 -90.918,6.224 37.245,82.721 110.975,136.767 197.339,157.175 22.645,-7.267 45.291,-14.535 67.936,-21.802 7.989,-2.564 15.98,-5.128 23.971,-7.693 z"
   class="fil6" />
    <path
   style="fill:#ea7050"
   inkscape:connector-curvature="0"
   id="path44"
   d="m 606.589,403.474 c -96.157,-24.106 -167.473,-91.697 -193.793,-141.36 -29.687,2.095 17.076,-1.276 -13.439,0.92 37.779,69.241 114.292,122.905 191.434,145.51 6.679,-2.143 8.239,-2.645 15.798,-5.07 z"
   class="fil7" />
    <path
   style="fill:#ea7050"
   inkscape:connector-curvature="0"
   id="path46"
   d="M 572.939,414.273 C 480.546,390.514 403.515,314.507 378.721,264.421 c -29.687,2.094 17.076,-1.277 -13.439,0.92 40.645,74.329 113.076,129.725 192.81,153.698 6.145,-1.973 7.288,-2.34 14.847,-4.766 z"
   class="fil7" />
    <path
   style="fill:#ffffff;fill-rule:nonzero"
   inkscape:connector-curvature="0"
   id="path48"
   d="m 633.165,387.502 c -35.549,-5.227 -75.494,-19.795 -111.711,-45.138 -30.292,-21.199 -57.962,-49.932 -78.242,-87.028 l -0.002,0.002 c -0.884,-1.398 -2.489,-2.276 -4.255,-2.146 -2.553,0.187 -4.469,2.406 -4.282,4.957 0.044,0.599 0.2,1.163 0.446,1.673 l -0.005,0.002 c 21.025,38.436 49.676,68.192 81.034,90.136 37.386,26.161 78.643,41.233 115.411,46.687 l 0.002,-0.007 c 0.381,0.07 0.777,0.094 1.182,0.064 2.551,-0.187 4.467,-2.406 4.28,-4.959 -0.159,-2.176 -1.797,-3.89 -3.86,-4.23 z"
   class="fil0" />
    <path
   style="fill:#ffffff;fill-rule:nonzero"
   inkscape:connector-curvature="0"
   id="path50"
   d="M 542.773,423.868 C 508.127,414.811 470.73,400.542 436.273,376.251 400.879,351.3 368.495,315.713 345.23,264.242 l -0.023,0.011 c -0.836,-1.565 -2.54,-2.575 -4.424,-2.437 -2.553,0.187 -4.469,2.406 -4.283,4.957 0.032,0.424 0.119,0.831 0.255,1.212 24.029,53.194 57.536,90 94.175,115.828 35.439,24.984 73.726,39.648 109.166,48.945 l 10e-4,-0.002 0.025,0.008 0.026,0.007 0.334,0.088 c 0.429,0.094 0.879,0.128 1.339,0.094 2.55,-0.186 4.467,-2.406 4.28,-4.958 -0.146,-1.988 -1.525,-3.589 -3.332,-4.112 z"
   class="fil0" />
   </g>
  </g>
  <path
   style="fill:#e9c46a;fill-rule:nonzero"
   inkscape:connector-curvature="0"
   id="path55"
   d="m 715.175,408.524 c -3.77,0 -7.413,-0.535 -10.927,-1.605 -3.515,-1.071 -6.296,-2.491 -8.345,-4.26 l 3.143,-7.052 c 2.001,1.583 4.457,2.874 7.366,3.875 2.909,1.001 5.83,1.501 8.763,1.501 3.631,0 6.342,-0.581 8.135,-1.745 1.792,-1.164 2.688,-2.7 2.688,-4.609 0,-1.396 -0.5,-2.548 -1.501,-3.456 -1.001,-0.908 -2.27,-1.618 -3.806,-2.13 -1.536,-0.512 -3.631,-1.093 -6.284,-1.745 -3.724,-0.885 -6.738,-1.769 -9.042,-2.653 -2.304,-0.885 -4.283,-2.27 -5.935,-4.155 -1.653,-1.885 -2.479,-4.434 -2.479,-7.646 0,-2.7 0.733,-5.155 2.199,-7.367 1.467,-2.21 3.678,-3.968 6.634,-5.271 2.956,-1.304 6.575,-1.955 10.857,-1.955 2.98,0 5.912,0.372 8.798,1.117 2.887,0.745 5.377,1.815 7.472,3.212 l -2.863,7.052 c -2.141,-1.257 -4.376,-2.211 -6.704,-2.863 -2.327,-0.651 -4.585,-0.977 -6.772,-0.977 -3.585,0 -6.25,0.605 -7.995,1.815 -1.746,1.211 -2.619,2.816 -2.619,4.818 0,1.397 0.501,2.537 1.501,3.421 1.001,0.885 2.27,1.583 3.806,2.095 1.536,0.512 3.631,1.094 6.284,1.746 3.631,0.838 6.61,1.711 8.938,2.618 2.327,0.908 4.317,2.293 5.97,4.155 1.652,1.862 2.479,4.376 2.479,7.541 0,2.7 -0.734,5.144 -2.2,7.332 -1.466,2.187 -3.689,3.933 -6.668,5.236 -2.979,1.304 -6.61,1.955 -10.893,1.955 z"
   class="fil8" />
  <path
   style="fill:#e9c46a;fill-rule:nonzero"
   inkscape:connector-curvature="0"
   d="m 765.519,405.801 c -1.024,0.838 -2.269,1.467 -3.736,1.886 -1.466,0.419 -3.014,0.628 -4.643,0.628 -4.097,0 -7.262,-1.071 -9.496,-3.212 -2.235,-2.141 -3.352,-5.26 -3.352,-9.356 v -17.945 h -6.145 v -6.983 h 6.145 V 362.3 h 8.728 v 8.519 h 9.985 v 6.983 h -9.985 v 17.735 c 0,1.816 0.442,3.2 1.327,4.155 0.884,0.954 2.164,1.431 3.84,1.431 1.955,0 3.585,-0.512 4.888,-1.536 z"
   class="fil8"
   id="1" />
  <path
   style="fill:#e9c46a;fill-rule:nonzero"
   inkscape:connector-curvature="0"
   d="m 781.02,375.986 c 2.513,-3.91 6.936,-5.865 13.267,-5.865 v 8.309 c -0.745,-0.139 -1.42,-0.209 -2.025,-0.209 -3.398,0 -6.052,0.989 -7.96,2.967 -1.909,1.979 -2.863,4.83 -2.863,8.554 v 18.084 h -8.728 V 370.54 h 8.309 z"
   class="fil8"
   id="2" />
  <path
   style="fill:#e9c46a;fill-rule:nonzero"
   inkscape:connector-curvature="0"
   d="m 836.391,389.392 c 0,0.606 -0.047,1.467 -0.14,2.584 h -29.256 c 0.512,2.747 1.85,4.923 4.015,6.529 2.164,1.606 4.852,2.409 8.065,2.409 4.096,0 7.471,-1.35 10.124,-4.05 l 4.678,5.376 c -1.675,2.002 -3.793,3.515 -6.354,4.539 -2.56,1.024 -5.446,1.536 -8.658,1.536 -4.096,0 -7.704,-0.814 -10.823,-2.444 -3.119,-1.629 -5.528,-3.898 -7.227,-6.808 -1.699,-2.909 -2.548,-6.203 -2.548,-9.88 0,-3.631 0.826,-6.901 2.478,-9.81 1.653,-2.91 3.946,-5.179 6.878,-6.808 2.933,-1.629 6.238,-2.444 9.915,-2.444 3.631,0 6.878,0.803 9.741,2.409 2.863,1.606 5.097,3.864 6.703,6.773 1.606,2.909 2.409,6.272 2.409,10.089 z m -18.853,-12.289 c -2.793,0 -5.155,0.827 -7.087,2.479 -1.932,1.653 -3.107,3.852 -3.526,6.599 h 21.157 c -0.373,-2.7 -1.513,-4.888 -3.422,-6.564 -1.908,-1.676 -4.282,-2.514 -7.122,-2.514 z"
   class="fil8"
   id="3" />
  <path
   style="fill:#e9c46a;fill-rule:nonzero"
   inkscape:connector-curvature="0"
   d="m 856.291,408.315 c -3.026,0 -5.982,-0.395 -8.868,-1.187 -2.886,-0.791 -5.19,-1.792 -6.913,-3.002 l 3.352,-6.634 c 1.676,1.118 3.689,2.014 6.04,2.689 2.351,0.675 4.667,1.012 6.948,1.012 5.213,0 7.82,-1.373 7.82,-4.12 0,-1.303 -0.664,-2.211 -1.99,-2.723 -1.327,-0.512 -3.456,-1.001 -6.389,-1.466 -3.072,-0.466 -5.574,-1.001 -7.506,-1.606 -1.932,-0.605 -3.608,-1.664 -5.028,-3.177 -1.42,-1.513 -2.129,-3.619 -2.129,-6.319 0,-3.538 1.478,-6.366 4.434,-8.484 2.956,-2.118 6.947,-3.177 11.975,-3.177 2.56,0 5.12,0.291 7.68,0.873 2.561,0.582 4.655,1.361 6.285,2.339 l -3.352,6.633 c -3.166,-1.862 -6.726,-2.793 -10.683,-2.793 -2.561,0 -4.504,0.384 -5.831,1.152 -1.326,0.768 -1.99,1.781 -1.99,3.038 0,1.396 0.71,2.385 2.13,2.967 1.42,0.582 3.619,1.129 6.598,1.641 2.98,0.466 5.423,1.001 7.332,1.606 1.909,0.605 3.55,1.629 4.923,3.072 1.373,1.443 2.059,3.492 2.059,6.145 0,3.491 -1.512,6.284 -4.538,8.379 -3.026,2.095 -7.145,3.142 -12.359,3.142 z"
   class="fil8"
   id="4" />
  <path
   style="fill:#e9c46a;fill-rule:nonzero"
   inkscape:connector-curvature="0"
   d="m 892.251,408.315 c -3.026,0 -5.982,-0.395 -8.868,-1.187 -2.886,-0.791 -5.19,-1.792 -6.913,-3.002 l 3.352,-6.634 c 1.676,1.118 3.689,2.014 6.04,2.689 2.35,0.675 4.666,1.012 6.947,1.012 5.214,0 7.821,-1.373 7.821,-4.12 0,-1.303 -0.664,-2.211 -1.99,-2.723 -1.327,-0.512 -3.457,-1.001 -6.389,-1.466 -3.073,-0.466 -5.575,-1.001 -7.507,-1.606 -1.931,-0.605 -3.607,-1.664 -5.027,-3.177 -1.42,-1.513 -2.129,-3.619 -2.129,-6.319 0,-3.538 1.478,-6.366 4.433,-8.484 2.956,-2.118 6.948,-3.177 11.975,-3.177 2.561,0 5.121,0.291 7.681,0.873 2.56,0.582 4.655,1.361 6.284,2.339 l -3.351,6.633 c -3.166,-1.862 -6.727,-2.793 -10.684,-2.793 -2.56,0 -4.503,0.384 -5.83,1.152 -1.326,0.768 -1.99,1.781 -1.99,3.038 0,1.396 0.71,2.385 2.13,2.967 1.42,0.582 3.619,1.129 6.598,1.641 2.979,0.466 5.423,1.001 7.332,1.606 1.908,0.605 3.549,1.629 4.923,3.072 1.373,1.443 2.059,3.492 2.059,6.145 0,3.491 -1.513,6.284 -4.538,8.379 -3.026,2.095 -7.146,3.142 -12.359,3.142 z"
   class="fil8"
   id="5" />
  <polygon
   style="fill:#e9c46a;fill-rule:nonzero"
   points="914.804,384.784 934.006,384.784 934.006,392.046 914.804,392.046 "
   class="fil8"
   id="6" />
  <path
   style="fill:#e9c46a;fill-rule:nonzero"
   inkscape:connector-curvature="0"
   d="m 958.724,362.58 c -3.678,0 -5.516,2.002 -5.516,6.005 v 2.234 h 10.264 v 6.983 h -9.985 v 30.024 h -8.728 v -30.024 h -6.145 v -6.983 h 6.145 v -2.374 c 0,-4.003 1.164,-7.157 3.491,-9.461 2.328,-2.304 5.609,-3.457 9.845,-3.457 3.352,0 5.982,0.676 7.891,2.025 l -2.444,6.564 c -1.49,-1.024 -3.096,-1.536 -4.818,-1.536 z"
   class="fil8"
   id="7" />
  <path
   style="fill:#e9c46a;fill-rule:nonzero"
   inkscape:connector-curvature="0"
   d="m 983.232,375.986 c 2.514,-3.91 6.936,-5.865 13.267,-5.865 v 8.309 c -0.745,-0.139 -1.42,-0.209 -2.025,-0.209 -3.398,0 -6.051,0.989 -7.96,2.967 -1.909,1.979 -2.863,4.83 -2.863,8.554 v 18.084 h -8.728 V 370.54 h 8.309 z"
   class="fil8"
   id="8" />
  <path
   style="fill:#e9c46a;fill-rule:nonzero"
   inkscape:connector-curvature="0"
   d="m 1038.603,389.392 c 0,0.606 -0.046,1.467 -0.139,2.584 h -29.257 c 0.512,2.747 1.851,4.923 4.015,6.529 2.165,1.606 4.853,2.409 8.065,2.409 4.096,0 7.471,-1.35 10.124,-4.05 l 4.679,5.376 c -1.676,2.002 -3.794,3.515 -6.354,4.539 -2.561,1.024 -5.447,1.536 -8.659,1.536 -4.096,0 -7.704,-0.814 -10.822,-2.444 -3.119,-1.629 -5.528,-3.898 -7.227,-6.808 -1.699,-2.909 -2.549,-6.203 -2.549,-9.88 0,-3.631 0.826,-6.901 2.479,-9.81 1.652,-2.91 3.945,-5.179 6.878,-6.808 2.932,-1.629 6.237,-2.444 9.915,-2.444 3.631,0 6.878,0.803 9.74,2.409 2.863,1.606 5.097,3.864 6.703,6.773 1.606,2.909 2.409,6.272 2.409,10.089 z m -18.852,-12.289 c -2.793,0 -5.156,0.827 -7.087,2.479 -1.932,1.653 -3.108,3.852 -3.527,6.599 h 21.157 c -0.372,-2.7 -1.513,-4.888 -3.421,-6.564 -1.909,-1.676 -4.283,-2.514 -7.122,-2.514 z"
   class="fil8"
   id="9" />
  <path
   style="fill:#e9c46a;fill-rule:nonzero"
   inkscape:connector-curvature="0"
   d="m 1082.034,389.392 c 0,0.606 -0.046,1.467 -0.139,2.584 h -29.257 c 0.512,2.747 1.85,4.923 4.015,6.529 2.165,1.606 4.853,2.409 8.065,2.409 4.096,0 7.471,-1.35 10.124,-4.05 l 4.679,5.376 c -1.676,2.002 -3.794,3.515 -6.354,4.539 -2.561,1.024 -5.447,1.536 -8.659,1.536 -4.096,0 -7.704,-0.814 -10.822,-2.444 -3.119,-1.629 -5.528,-3.898 -7.227,-6.808 -1.7,-2.909 -2.549,-6.203 -2.549,-9.88 0,-3.631 0.826,-6.901 2.479,-9.81 1.652,-2.91 3.945,-5.179 6.878,-6.808 2.932,-1.629 6.237,-2.444 9.915,-2.444 3.631,0 6.877,0.803 9.74,2.409 2.863,1.606 5.097,3.864 6.703,6.773 1.606,2.909 2.409,6.272 2.409,10.089 z m -18.852,-12.289 c -2.793,0 -5.156,0.827 -7.088,2.479 -1.931,1.653 -3.107,3.852 -3.526,6.599 h 21.157 c -0.372,-2.7 -1.513,-4.888 -3.421,-6.564 -1.909,-1.676 -4.283,-2.514 -7.122,-2.514 z"
   class="fil8"
   id="10" />
  <path
   style="fill:#e9c46a;fill-rule:nonzero"
   inkscape:connector-curvature="0"
   d="m 1118.134,408.524 c -3.119,0 -5.994,-0.616 -8.624,-1.85 -2.63,-1.233 -4.783,-2.967 -6.459,-5.202 l 5.167,-6.214 c 2.7,3.724 5.935,5.586 9.706,5.586 5.074,0 7.611,-3.003 7.611,-9.007 V 366.56 h -17.387 v -7.611 h 26.464 v 32.399 c 0,5.725 -1.396,10.02 -4.189,12.882 -2.793,2.863 -6.89,4.294 -12.289,4.294 z"
   class="fil8"
   id="11" />
  <path
   style="fill:#e9c46a;fill-rule:nonzero"
   inkscape:connector-curvature="0"
   d="m 1160.727,370.121 c 5.492,0 9.694,1.315 12.603,3.945 2.909,2.63 4.364,6.598 4.364,11.905 v 21.855 h -8.239 v -4.538 c -1.071,1.629 -2.595,2.874 -4.574,3.735 -1.978,0.861 -4.364,1.292 -7.157,1.292 -2.793,0 -5.237,-0.477 -7.331,-1.431 -2.095,-0.955 -3.713,-2.281 -4.853,-3.98 -1.141,-1.699 -1.711,-3.62 -1.711,-5.761 0,-3.351 1.245,-6.04 3.736,-8.065 2.49,-2.025 6.412,-3.037 11.765,-3.037 h 9.636 v -0.558 c 0,-2.607 -0.78,-4.609 -2.339,-6.005 -1.559,-1.397 -3.875,-2.095 -6.948,-2.095 -2.094,0 -4.154,0.326 -6.179,0.977 -2.025,0.652 -3.736,1.56 -5.132,2.723 l -3.422,-6.354 c 1.955,-1.489 4.306,-2.63 7.053,-3.421 2.746,-0.791 5.656,-1.187 8.728,-1.187 z m -1.187,31.84 c 2.188,0 4.131,-0.5 5.83,-1.501 1.699,-1.001 2.898,-2.432 3.596,-4.294 v -4.329 h -9.007 c -5.028,0 -7.541,1.652 -7.541,4.957 0,1.583 0.628,2.839 1.885,3.771 1.257,0.931 3.002,1.396 5.237,1.396 z"
   class="fil8"
   id="12" />
  <polygon
   style="fill:#e9c46a;fill-rule:nonzero"
   points="1214.701,370.54 1223.08,370.54 1207.09,407.826 1198.083,407.826 1182.093,370.54 1191.17,370.54 1202.761,398.191 "
   class="fil8"
   id="13" />
  <path
   style="fill:#e9c46a;fill-rule:nonzero"
   inkscape:connector-curvature="0"
   d="m 1241.584,370.121 c 5.492,0 9.694,1.315 12.603,3.945 2.909,2.63 4.364,6.598 4.364,11.905 v 21.855 h -8.239 v -4.538 c -1.071,1.629 -2.595,2.874 -4.574,3.735 -1.978,0.861 -4.364,1.292 -7.157,1.292 -2.793,0 -5.237,-0.477 -7.332,-1.431 -2.094,-0.955 -3.712,-2.281 -4.852,-3.98 -1.141,-1.699 -1.711,-3.62 -1.711,-5.761 0,-3.351 1.245,-6.04 3.736,-8.065 2.49,-2.025 6.412,-3.037 11.765,-3.037 h 9.636 v -0.558 c 0,-2.607 -0.78,-4.609 -2.339,-6.005 -1.56,-1.397 -3.876,-2.095 -6.948,-2.095 -2.095,0 -4.154,0.326 -6.179,0.977 -2.025,0.652 -3.736,1.56 -5.132,2.723 l -3.422,-6.354 c 1.955,-1.489 4.306,-2.63 7.052,-3.421 2.747,-0.791 5.656,-1.187 8.729,-1.187 z m -1.187,31.84 c 2.187,0 4.131,-0.5 5.83,-1.501 1.699,-1.001 2.898,-2.432 3.596,-4.294 v -4.329 h -9.007 c -5.028,0 -7.542,1.652 -7.542,4.957 0,1.583 0.629,2.839 1.886,3.771 1.256,0.931 3.002,1.396 5.237,1.396 z"
   class="fil8"
   id="14" />
  <path
   style="fill:#e9c46a;fill-rule:nonzero"
   inkscape:connector-curvature="0"
   d="m 1285.713,408.524 c -3.771,0 -7.413,-0.535 -10.928,-1.605 -3.514,-1.071 -6.296,-2.491 -8.344,-4.26 l 3.142,-7.052 c 2.002,1.583 4.458,2.874 7.367,3.875 2.909,1.001 5.83,1.501 8.763,1.501 3.631,0 6.342,-0.581 8.134,-1.745 1.793,-1.164 2.689,-2.7 2.689,-4.609 0,-1.396 -0.501,-2.548 -1.502,-3.456 -1,-0.908 -2.269,-1.618 -3.805,-2.13 -1.536,-0.512 -3.631,-1.093 -6.284,-1.745 -3.724,-0.885 -6.738,-1.769 -9.043,-2.653 -2.304,-0.885 -4.282,-2.27 -5.935,-4.155 -1.652,-1.885 -2.478,-4.434 -2.478,-7.646 0,-2.7 0.733,-5.155 2.199,-7.367 1.466,-2.21 3.677,-3.968 6.633,-5.271 2.956,-1.304 6.576,-1.955 10.858,-1.955 2.979,0 5.912,0.372 8.798,1.117 2.886,0.745 5.377,1.815 7.471,3.212 l -2.862,7.052 c -2.142,-1.257 -4.376,-2.211 -6.704,-2.863 -2.327,-0.651 -4.585,-0.977 -6.773,-0.977 -3.584,0 -6.249,0.605 -7.995,1.815 -1.745,1.211 -2.618,2.816 -2.618,4.818 0,1.397 0.5,2.537 1.501,3.421 1.001,0.885 2.27,1.583 3.806,2.095 1.536,0.512 3.631,1.094 6.284,1.746 3.631,0.838 6.61,1.711 8.937,2.618 2.328,0.908 4.318,2.293 5.971,4.155 1.652,1.862 2.478,4.376 2.478,7.541 0,2.7 -0.733,5.144 -2.199,7.332 -1.467,2.187 -3.689,3.933 -6.669,5.236 -2.979,1.304 -6.609,1.955 -10.892,1.955 z"
   class="fil8"
   id="15" />
  <path
   style="fill:#e9c46a;fill-rule:nonzero"
   inkscape:connector-curvature="0"
   d="m 1330.75,408.315 c -3.864,0 -7.332,-0.814 -10.404,-2.444 -3.072,-1.629 -5.47,-3.898 -7.192,-6.808 -1.722,-2.909 -2.584,-6.203 -2.584,-9.88 0,-3.677 0.862,-6.959 2.584,-9.845 1.722,-2.886 4.108,-5.144 7.157,-6.773 3.049,-1.629 6.529,-2.444 10.439,-2.444 3.677,0 6.901,0.745 9.67,2.234 2.77,1.49 4.853,3.631 6.25,6.424 l -6.703,3.91 c -1.071,-1.722 -2.409,-3.014 -4.015,-3.875 -1.606,-0.861 -3.364,-1.292 -5.272,-1.292 -3.258,0 -5.958,1.059 -8.1,3.177 -2.141,2.118 -3.212,4.946 -3.212,8.484 0,3.538 1.059,6.366 3.177,8.484 2.118,2.118 4.83,3.177 8.135,3.177 1.908,0 3.666,-0.431 5.272,-1.292 1.606,-0.861 2.944,-2.153 4.015,-3.875 l 6.703,3.91 c -1.443,2.793 -3.55,4.946 -6.319,6.459 -2.77,1.513 -5.97,2.269 -9.601,2.269 z"
   class="fil8"
   id="16" />
  <path
   style="fill:#e9c46a;fill-rule:nonzero"
   inkscape:connector-curvature="0"
   d="m 1362.52,375.986 c 2.514,-3.91 6.936,-5.865 13.267,-5.865 v 8.309 c -0.745,-0.139 -1.42,-0.209 -2.025,-0.209 -3.398,0 -6.052,0.989 -7.96,2.967 -1.909,1.979 -2.863,4.83 -2.863,8.554 v 18.084 h -8.728 V 370.54 h 8.309 z"
   class="fil8"
   id="17" />
  <path
   style="fill:#e9c46a;fill-rule:nonzero"
   inkscape:connector-curvature="0"
   d="m 1383.188,370.54 h 8.728 v 37.286 h -8.728 z m 4.399,-6.145 c -1.583,0 -2.909,-0.5 -3.98,-1.501 -1.07,-1.001 -1.606,-2.246 -1.606,-3.735 0,-1.49 0.536,-2.735 1.606,-3.736 1.071,-1.001 2.397,-1.501 3.98,-1.501 1.583,0 2.91,0.477 3.98,1.431 1.071,0.954 1.606,2.153 1.606,3.596 0,1.536 -0.524,2.828 -1.571,3.875 -1.047,1.048 -2.386,1.571 -4.015,1.571 z"
   class="fil8"
   id="18" />
  <path
   style="fill:#e9c46a;fill-rule:nonzero"
   inkscape:connector-curvature="0"
   d="m 1424.036,370.121 c 3.631,0 6.877,0.791 9.74,2.374 2.863,1.583 5.109,3.817 6.738,6.703 1.63,2.886 2.444,6.215 2.444,9.985 0,3.771 -0.814,7.111 -2.444,10.02 -1.629,2.909 -3.875,5.155 -6.738,6.738 -2.863,1.583 -6.109,2.374 -9.74,2.374 -5.028,0 -9.008,-1.676 -11.94,-5.027 v 18.084 h -8.728 V 370.54 h 8.309 v 4.888 c 1.443,-1.769 3.223,-3.096 5.341,-3.98 2.118,-0.885 4.458,-1.327 7.018,-1.327 z m -0.978,30.723 c 3.212,0 5.854,-1.071 7.925,-3.212 2.072,-2.141 3.108,-4.958 3.108,-8.449 0,-3.491 -1.036,-6.307 -3.108,-8.449 -2.071,-2.141 -4.713,-3.212 -7.925,-3.212 -2.095,0 -3.98,0.478 -5.656,1.432 -1.675,0.954 -3.002,2.316 -3.98,4.084 -0.977,1.769 -1.466,3.818 -1.466,6.145 0,2.328 0.489,4.376 1.466,6.145 0.978,1.768 2.305,3.13 3.98,4.084 1.676,0.955 3.561,1.432 5.656,1.432 z"
   class="fil8"
   id="19" />
  <path
   style="fill:#e9c46a;fill-rule:nonzero"
   inkscape:connector-curvature="0"
   d="m 1473.681,405.801 c -1.024,0.838 -2.269,1.467 -3.736,1.886 -1.466,0.419 -3.014,0.628 -4.643,0.628 -4.096,0 -7.262,-1.071 -9.496,-3.212 -2.235,-2.141 -3.352,-5.26 -3.352,-9.356 v -17.945 h -6.144 v -6.983 h 6.144 V 362.3 h 8.728 v 8.519 h 9.986 v 6.983 h -9.986 v 17.735 c 0,1.816 0.443,3.2 1.327,4.155 0.885,0.954 2.165,1.431 3.84,1.431 1.955,0 3.585,-0.512 4.888,-1.536 z"
   class="fil8"
   id="20" />
  <path
   style="fill:#e9c46a;fill-rule:nonzero"
   inkscape:connector-curvature="0"
   d="m 1522.558,405.801 c -1.024,0.838 -2.269,1.467 -3.735,1.886 -1.467,0.419 -3.014,0.628 -4.644,0.628 -4.096,0 -7.261,-1.071 -9.496,-3.212 -2.234,-2.141 -3.351,-5.26 -3.351,-9.356 v -17.945 h -6.145 v -6.983 h 6.145 V 362.3 h 8.728 v 8.519 h 9.985 v 6.983 h -9.985 v 17.735 c 0,1.816 0.442,3.2 1.326,4.155 0.885,0.954 2.165,1.431 3.841,1.431 1.955,0 3.584,-0.512 4.887,-1.536 z"
   class="fil8"
   id="21" />
  <path
   style="fill:#e9c46a;fill-rule:nonzero"
   inkscape:connector-curvature="0"
   d="m 1563.545,389.392 c 0,0.606 -0.046,1.467 -0.139,2.584 h -29.257 c 0.512,2.747 1.85,4.923 4.015,6.529 2.165,1.606 4.853,2.409 8.065,2.409 4.096,0 7.471,-1.35 10.124,-4.05 l 4.679,5.376 c -1.676,2.002 -3.794,3.515 -6.354,4.539 -2.561,1.024 -5.447,1.536 -8.659,1.536 -4.096,0 -7.704,-0.814 -10.822,-2.444 -3.119,-1.629 -5.528,-3.898 -7.227,-6.808 -1.7,-2.909 -2.549,-6.203 -2.549,-9.88 0,-3.631 0.826,-6.901 2.479,-9.81 1.652,-2.91 3.945,-5.179 6.878,-6.808 2.932,-1.629 6.237,-2.444 9.915,-2.444 3.631,0 6.878,0.803 9.74,2.409 2.863,1.606 5.097,3.864 6.703,6.773 1.606,2.909 2.409,6.272 2.409,10.089 z m -18.852,-12.289 c -2.793,0 -5.156,0.827 -7.087,2.479 -1.932,1.653 -3.108,3.852 -3.527,6.599 h 21.157 c -0.372,-2.7 -1.513,-4.888 -3.421,-6.564 -1.909,-1.676 -4.283,-2.514 -7.122,-2.514 z"
   class="fil8"
   id="22" />
  <path
   style="fill:#e9c46a;fill-rule:nonzero"
   inkscape:connector-curvature="0"
   d="m 1583.445,408.315 c -3.026,0 -5.981,-0.395 -8.867,-1.187 -2.886,-0.791 -5.191,-1.792 -6.913,-3.002 l 3.352,-6.634 c 1.675,1.118 3.689,2.014 6.039,2.689 2.351,0.675 4.667,1.012 6.948,1.012 5.214,0 7.82,-1.373 7.82,-4.12 0,-1.303 -0.663,-2.211 -1.99,-2.723 -1.326,-0.512 -3.456,-1.001 -6.389,-1.466 -3.072,-0.466 -5.574,-1.001 -7.506,-1.606 -1.932,-0.605 -3.607,-1.664 -5.027,-3.177 -1.42,-1.513 -2.13,-3.619 -2.13,-6.319 0,-3.538 1.478,-6.366 4.434,-8.484 2.956,-2.118 6.948,-3.177 11.975,-3.177 2.56,0 5.12,0.291 7.681,0.873 2.56,0.582 4.655,1.361 6.284,2.339 l -3.352,6.633 c -3.165,-1.862 -6.726,-2.793 -10.683,-2.793 -2.56,0 -4.504,0.384 -5.83,1.152 -1.327,0.768 -1.99,1.781 -1.99,3.038 0,1.396 0.71,2.385 2.129,2.967 1.42,0.582 3.62,1.129 6.599,1.641 2.979,0.466 5.423,1.001 7.332,1.606 1.908,0.605 3.549,1.629 4.922,3.072 1.373,1.443 2.06,3.492 2.06,6.145 0,3.491 -1.513,6.284 -4.539,8.379 -3.025,2.095 -7.145,3.142 -12.359,3.142 z"
   class="fil8"
   id="23" />
  <path
   style="fill:#e9c46a;fill-rule:nonzero"
   inkscape:connector-curvature="0"
   d="m 1630.298,405.801 c -1.024,0.838 -2.269,1.467 -3.736,1.886 -1.466,0.419 -3.014,0.628 -4.643,0.628 -4.097,0 -7.262,-1.071 -9.496,-3.212 -2.235,-2.141 -3.352,-5.26 -3.352,-9.356 v -17.945 h -6.145 v -6.983 h 6.145 V 362.3 h 8.728 v 8.519 h 9.985 v 6.983 h -9.985 v 17.735 c 0,1.816 0.442,3.2 1.327,4.155 0.884,0.954 2.164,1.431 3.84,1.431 1.955,0 3.585,-0.512 4.888,-1.536 z"
   class="fil8"
   id="24" />
  <path
   style="fill:#e9c46a;fill-rule:nonzero"
   inkscape:connector-curvature="0"
   d="m 1637.49,370.54 h 8.728 v 37.286 h -8.728 z m 4.399,-6.145 c -1.583,0 -2.91,-0.5 -3.98,-1.501 -1.071,-1.001 -1.606,-2.246 -1.606,-3.735 0,-1.49 0.535,-2.735 1.606,-3.736 1.07,-1.001 2.397,-1.501 3.98,-1.501 1.582,0 2.909,0.477 3.98,1.431 1.07,0.954 1.606,2.153 1.606,3.596 0,1.536 -0.524,2.828 -1.571,3.875 -1.048,1.048 -2.386,1.571 -4.015,1.571 z"
   class="fil8"
   id="25" />
  <path
   style="fill:#e9c46a;fill-rule:nonzero"
   inkscape:connector-curvature="0"
   d="m 1678.826,370.121 c 4.702,0 8.472,1.373 11.312,4.12 2.839,2.746 4.259,6.819 4.259,12.219 v 21.366 h -8.728 v -20.249 c 0,-3.258 -0.768,-5.714 -2.304,-7.366 -1.537,-1.653 -3.724,-2.479 -6.564,-2.479 -3.212,0 -5.749,0.966 -7.611,2.898 -1.862,1.931 -2.793,4.713 -2.793,8.344 v 18.852 h -8.728 V 370.54 h 8.309 v 4.818 c 1.443,-1.722 3.259,-3.026 5.447,-3.91 2.188,-0.885 4.655,-1.327 7.401,-1.327 z"
   class="fil8"
   id="26" />
  <path
   style="fill:#e9c46a;fill-rule:nonzero"
   inkscape:connector-curvature="0"
   d="m 1742.855,370.54 v 31.63 c 0,13.127 -6.703,19.691 -20.109,19.691 -3.584,0 -6.983,-0.454 -10.194,-1.361 -3.213,-0.908 -5.866,-2.223 -7.961,-3.946 l 3.911,-6.563 c 1.629,1.35 3.689,2.432 6.179,3.247 2.49,0.814 5.016,1.222 7.576,1.222 4.096,0 7.099,-0.931 9.008,-2.793 1.908,-1.862 2.862,-4.702 2.862,-8.519 v -1.955 c -1.489,1.629 -3.305,2.863 -5.446,3.701 -2.141,0.838 -4.492,1.257 -7.052,1.257 -3.538,0 -6.738,-0.757 -9.601,-2.27 -2.863,-1.513 -5.121,-3.642 -6.773,-6.389 -1.653,-2.746 -2.479,-5.888 -2.479,-9.426 0,-3.538 0.826,-6.668 2.479,-9.392 1.652,-2.723 3.91,-4.829 6.773,-6.319 2.863,-1.489 6.063,-2.234 9.601,-2.234 2.7,0 5.155,0.442 7.366,1.327 2.211,0.884 4.062,2.234 5.551,4.049 v -4.957 z m -19.9,28.209 c 3.305,0 6.017,-0.989 8.135,-2.967 2.118,-1.979 3.177,-4.551 3.177,-7.716 0,-3.119 -1.059,-5.656 -3.177,-7.611 -2.118,-1.955 -4.83,-2.933 -8.135,-2.933 -3.351,0 -6.086,0.978 -8.204,2.933 -2.118,1.955 -3.177,4.492 -3.177,7.611 0,3.165 1.059,5.737 3.177,7.716 2.118,1.978 4.853,2.967 8.204,2.967 z"
   class="fil8"
   id="27" />
 </g><g
     transform="matrix(5.1185204,0,0,5.1185204,-0.84607494,2.0318271e-4)"
     id="g943"
     style="clip-rule:evenodd;fill-rule:evenodd;image-rendering:optimizeQuality;shape-rendering:geometricPrecision;text-rendering:geometricPrecision"><g
       id="Layer_x0020_1-5">
  <metadata
   id="CorelCorpID_0Corel-Layer-3" />
  <path
   inkscape:connector-curvature="0"
   class="fil0"
   d="m 24.18,14.754 v 0 C 20.001,14.752 15.823,14.749 11.646,14.749 10.35,12.793 11.539,8.844 15.618,9.893 15.383,7.092 18.742,5.161 21.29,6.676 22.054,5.731 23.181,5.344 24.292,5.38 c 1.112,-0.036 2.238,0.351 3.003,1.296 2.548,-1.515 5.907,0.416 5.671,3.217 4.079,-1.049 5.268,2.9 3.972,4.856 -4.177,0 -8.355,0.003 -12.534,0.005 v 0 h -0.112 z"
   id="path913"
   style="fill:url(#id1-6)" />
  <path
   inkscape:connector-curvature="0"
   class="fil1"
   d="m 39.654,9.061 c -1.252,-1.889 -0.103,-7.116 3.838,-6.102 0.067,-2.749 4.505,-4.133 6.47,-1.704 2.462,-1.464 5.707,0.401 5.479,3.108 3.941,-1.014 5.09,2.801 3.838,4.69 -6.539,0 -13.079,0.008 -19.625,0.008 z"
   id="path915"
   style="fill:url(#id2-7)" />
  <circle
   style="fill:url(#id3)"
   class="fil2"
   cx="58.640999"
   cy="24.969"
   r="12.593"
   id="circle917" />
  <path
   inkscape:connector-curvature="0"
   class="fil3"
   d="m 24.18,20.965 v 0.022 c -0.491,0.69 -0.898,1.501 -1.188,2.438 C 18.718,17.679 9.716,21.002 9.565,27.184 0.841,24.939 -1.702,33.386 1.069,37.569 H 24.187 35.651 58.769 C 61.54,33.386 58.997,24.939 50.272,27.184 50.121,21.002 41.12,17.679 36.846,23.425 36.555,22.488 36.149,21.677 35.657,20.987 v -0.022 c -0.112,-0.149 -0.229,-0.293 -0.35,-0.431 -1.404,-1.68 -3.365,-2.5 -5.334,-2.498 -0.018,-0.001 -0.036,0 -0.054,0 -0.018,0 -0.036,-0.001 -0.054,0 -1.969,-0.002 -3.93,0.818 -5.334,2.498 -0.121,0.138 -0.238,0.282 -0.351,0.431 z"
   id="path919"
   style="fill:url(#linearGradient945)" />
 </g></g></g>
</svg>