<?xml version="1.0" encoding="UTF-8" standalone="no"?>
<svg
   xmlns:dc="http://purl.org/dc/elements/1.1/"
   xmlns:cc="http://creativecommons.org/ns#"
   xmlns:rdf="http://www.w3.org/1999/02/22-rdf-syntax-ns#"
   xmlns:svg="http://www.w3.org/2000/svg"
   xmlns="http://www.w3.org/2000/svg"
   xmlns:sodipodi="http://sodipodi.sourceforge.net/DTD/sodipodi-0.dtd"
   xmlns:inkscape="http://www.inkscape.org/namespaces/inkscape"
   version="1.1"
   id="svg2"
   xml:space="preserve"
   width="194.66667"
   height="194.66667"
   viewBox="0 0 194.66667 194.66667"
   sodipodi:docname="Siesta Symbol Color onTransparent.eps"><metadata
     id="metadata8"><rdf:RDF><cc:Work
         rdf:about=""><dc:format>image/svg+xml</dc:format><dc:type
           rdf:resource="http://purl.org/dc/dcmitype/StillImage" /></cc:Work></rdf:RDF></metadata><defs
     id="defs6" /><sodipodi:namedview
     pagecolor="#ffffff"
     bordercolor="#666666"
     borderopacity="1"
     objecttolerance="10"
     gridtolerance="10"
     guidetolerance="10"
     inkscape:pageopacity="0"
     inkscape:pageshadow="2"
     inkscape:window-width="640"
     inkscape:window-height="480"
     id="namedview4" /><g
     id="g10"
     inkscape:groupmode="layer"
     inkscape:label="ink_ext_XXXXXX"
     transform="matrix(1.3333333,0,0,-1.3333333,0,194.66667)"><g
       id="g12"
       transform="scale(0.1)"><path
         d="m 806.359,702.414 179.36,-416.301 h -50.594 l -171.559,398.028 42.793,18.273"
         style="fill:#264653;fill-opacity:1;fill-rule:evenodd;stroke:none"
         id="path14" /><path
         d="M 1175.38,1015.3 C 1005.61,1187.76 803.547,1198.81 643.566,1153.89 742.289,1124.36 884.738,993.613 969.164,837.387 1052.6,897.48 1114.79,953.164 1175.38,1015.3"
         style="fill:#e76f51;fill-opacity:1;fill-rule:evenodd;stroke:none"
         id="path16" /><path
         d="M 282.641,634.574 C 275.488,876.453 407.285,1030.05 550.383,1114.52 503.418,1022.79 501.332,827.164 555.777,658.121 449.012,635.996 365.395,628.375 282.641,634.574"
         style="fill:#e9c46a;fill-opacity:1;fill-rule:evenodd;stroke:none"
         id="path18" /><path
         d="M 596.348,1134.41 C 708.695,1093.91 836.043,973.414 918.227,804.242 820.902,740.488 723.109,698.23 616.031,672.75 c -69.293,182.727 -69.953,347.79 -19.683,461.66"
         style="fill:#f4a261;fill-opacity:1;fill-rule:evenodd;stroke:none"
         id="path20" /></g></g></svg>
